<?xml version="1.0" encoding="UTF-8" standalone="no"?>
<!-- Created with Inkscape (http://www.inkscape.org/) -->

<svg
   version="1.1"
   id="svg1"
   viewBox="0 0 906 378"
   sodipodi:docname="HarvestExchangeLogo.svg"
   inkscape:version="1.3 (0e150ed6c4, 2023-07-21)"
   xmlns:inkscape="http://www.inkscape.org/namespaces/inkscape"
   xmlns:sodipodi="http://sodipodi.sourceforge.net/DTD/sodipodi-0.dtd"
   xmlns="http://www.w3.org/2000/svg"
   xmlns:svg="http://www.w3.org/2000/svg">
  <defs
     id="defs1" />
  <sodipodi:namedview
     id="namedview1"
     pagecolor="#ffffff"
     bordercolor="#000000"
     borderopacity="0.25"
     inkscape:showpageshadow="2"
     inkscape:pageopacity="0.0"
     inkscape:pagecheckerboard="0"
     inkscape:deskcolor="#d1d1d1"
     showgrid="false"
     inkscape:zoom="1.513245"
     inkscape:cx="453"
     inkscape:cy="189.32823"
     inkscape:window-width="1920"
     inkscape:window-height="1057"
     inkscape:window-x="-8"
     inkscape:window-y="-8"
     inkscape:window-maximized="1"
     inkscape:current-layer="g1" />
  <g
     inkscape:groupmode="layer"
     inkscape:label="Image"
     id="g1">
    <g
       id="g2">

      <path
         style="fill-opacity:1.0;fill:#eba601"
         d="m 614,337.47408 c -13.33186,-1.62765 -12.88818,-1.53858 -24,-4.81828 -11.67818,-3.44687 -14.59259,-4.50996 -21.39046,-7.80264 C 565.36978,323.28392 561.63935,322 560.3197,322 c -2.71642,0 -8.82011,-2.9041 -14.99988,-7.13685 C 543.02073,313.28842 540.84068,312 540.47528,312 539.30894,312 525.69751,302.71087 520,298.02662 516.975,295.5396 509.79472,289.11619 504.04381,283.75238 497.25391,277.41951 492.80079,274 491.34359,274 c -1.58596,0 -4.26937,2.41937 -9.15038,8.25 -10.0542,12.01029 -14.68999,16.5129 -18.74632,18.20774 -3.30892,1.38256 -3.89828,1.35165 -7.27378,-0.38147 -4.83892,-2.4845 -7.57888,-7.18837 -6.83986,-11.74244 0.55316,-3.40872 7.22567,-12.55311 19.48192,-26.69913 2.92334,-3.37408 6.16433,-7.76211 7.2022,-9.75117 1.03787,-1.98906 3.14604,-5.10223 4.68483,-6.91816 1.53879,-1.81593 3.6978,-4.77022 4.7978,-6.56509 1.1,-1.79487 4.475,-7.2236 7.5,-12.06384 6.22782,-9.96501 9.85762,-17.07112 9.94236,-19.46432 0.0317,-0.89533 0.78457,-3.36767 1.67305,-5.49408 3.26266,-7.80866 -1.59328,-18.26716 -10.4046,-22.40897 -5.79245,-2.72277 -13.71822,-2.27255 -17.96129,1.0203 C 471.29578,183.83373 455,206.85462 455,210.00836 c 0,0.42886 -2.38258,4.31492 -5.29463,8.63569 -2.91204,4.32077 -5.93402,9.42077 -6.7155,11.33333 -0.78148,1.91256 -3.59408,5.87711 -6.25022,8.81011 -2.65614,2.933 -6.42637,7.55567 -8.3783,10.27262 -1.95193,2.71694 -3.86896,4.93989 -4.26008,4.93989 -0.39112,0 -5.8614,4.97298 -12.15619,11.05106 -6.2948,6.07808 -13.12007,11.93085 -15.16728,13.00614 -2.0472,1.07529 -5.37445,3.41482 -7.39387,5.19894 -2.01943,1.78412 -5.37152,4.14386 -7.44909,5.24386 -13.91237,7.36608 -16.59606,8.85968 -17.93484,9.98157 -1.32385,1.10938 -4.131,2.28357 -19,7.94743 -10.64261,4.05396 -25.16888,7.69903 -38.5,9.66078 -17.18883,2.52944 -47.94288,2.81046 -61.5,0.56197 -1.925,-0.31926 -5.975,-0.99203 -9,-1.49503 -16.03016,-2.66551 -23.72854,-4.91285 -37.5,-10.94714 -4.95,-2.16896 -9.675,-4.23434 -10.5,-4.58975 -0.825,-0.3554 -3.5492,-1.87775 -6.05379,-3.38301 -2.50458,-1.50525 -7.18907,-4.31182 -10.40997,-6.23682 -9.20708,-5.5027 -20.47312,-16.08836 -82.370145,-77.39567 -38.174762,-37.81105 -38.257839,-37.9024 -37.209041,-40.91098 1.647282,-4.7254 6.441102,-10.72445 20.957245,-26.2262 3.622135,-3.86807 8.722732,-9.83057 11.334658,-13.25 C 86.860883,128.79772 89.388286,126 89.865407,126 90.614632,126 119.04408,153.0609 139,172.76932 145.76637,179.45177 153.20053,184 157.35675,184 c 3.06596,0 13.22875,-7.42624 17.44099,-12.74463 4.13347,-5.21892 7.15247,-11.91072 7.1803,-15.91557 0.0278,-4.00673 -4.92118,-10.37984 -17.86759,-23.00901 -5.28575,-5.15623 -15.01704,-14.65252 -21.62509,-21.10287 -6.60805,-6.45036 -13.97223,-13.460939 -16.36484,-15.579072 -3.91056,-3.461939 -4.23073,-4.074401 -3.168,-6.060123 0.65021,-1.214934 3.39154,-3.65533 6.09184,-5.423103 l 4.90965,-3.214132 4.77299,3.351983 c 2.62515,1.84359 5.223,4.218041 5.773,5.276557 0.55,1.058515 6.27791,7.098538 12.72868,13.42227 14.90588,14.61232 12.76719,12.45932 30.27132,30.47389 8.25,8.49058 15.675,16.12399 16.5,16.96314 0.825,0.83915 10.1625,10.05259 20.75,20.47431 10.5875,10.42172 19.25,19.38737 19.25,19.92367 0,1.27603 9.59981,8.16269 11.37857,8.16269 0.75566,0 4.46712,-3.47375 8.24768,-7.71945 3.78056,-4.2457 9.30095,-10.03229 12.26752,-12.8591 4.43509,-4.22613 5.28447,-5.5646 4.77878,-7.53055 -0.81117,-3.15353 -30.73144,-37.257 -42.89386,-48.8909 -3.73741,-3.575 -6.79155,-6.81239 -6.78699,-7.1942 0.005,-0.38181 -6.0667,-6.76218 -13.4917,-14.1786 C 210.075,93.210782 204,86.66527 204,86.081617 c 0,-0.583654 -2.475,-2.704495 -5.5,-4.712982 -3.025,-2.008487 -5.5,-4.022426 -5.5,-4.475419 0,-0.452993 -1.43644,-2.459642 -3.1921,-4.45922 l -3.19209,-3.635597 2.44209,-1.862934 C 191.39858,65.1499 202.50328,59.486195 212,55.234364 c 6.3404,-2.838697 24.5466,-8.857208 30.5,-10.082533 14.72385,-3.030451 20.35466,-3.624108 34.5,-3.637336 15.957,-0.01492 23.02983,0.563953 36,2.946419 8.49925,1.561212 21.94199,5.268798 23.47769,6.475283 0.56227,0.441736 2.82231,1.376171 5.02231,2.076521 2.2,0.70035 6.42585,2.558996 9.39077,4.130323 C 353.85569,58.714369 356.86475,60 357.57756,60 c 0.71281,0 4.13697,1.93001 7.60923,4.288911 3.47227,2.358901 8.50344,5.558769 11.18038,7.110818 8.50512,4.931136 31.44745,25.372773 38.5166,34.318321 1.86108,2.35507 3.89161,4.28195 4.51229,4.28195 0.62068,0 3.37298,-3.01776 6.11622,-6.70613 6.56719,-8.829772 19.02361,-21.073113 23.22652,-22.829199 1.92926,-0.806098 4.7034,-1.145271 6.55333,-0.801225 3.39037,0.630538 9.70787,5.843603 9.70787,8.010735 0,1.417147 -6.95451,10.516128 -20.19745,26.425459 -9.98193,11.99174 -12.40908,15.28411 -16.8563,22.86513 -1.76317,3.00562 -4.94738,7.77151 -7.07601,10.59087 -2.12863,2.81935 -3.87024,5.61033 -3.87024,6.20218 0,0.59184 -1.47724,3.92595 -3.28277,7.40913 C 408.62125,170.99803 406,178.18699 406,182.33201 c 0,3.50112 0.85347,4.64054 11.07828,14.78997 7.969,7.91026 11.65049,10.9098 13.11708,10.68731 1.27201,-0.19297 3.21709,-2.40337 5.17172,-5.8772 1.72311,-3.06235 4.14542,-6.95682 5.38292,-8.65437 1.2375,-1.69755 2.25,-3.53427 2.25,-4.0816 0,-0.54733 1.62115,-3.40286 3.60256,-6.34563 1.9814,-2.94277 4.75507,-7.37549 6.16369,-9.85049 1.40862,-2.475 4.28747,-6.79157 6.39744,-9.59237 2.10997,-2.80081 3.83631,-5.54995 3.83631,-6.10921 0,-0.55926 1.71312,-2.9927 3.80693,-5.40763 2.09381,-2.41493 6.34245,-7.76579 9.44141,-11.89079 3.09897,-4.125 10.97929,-12.92721 17.51183,-19.56046 C 514.14228,99.743187 526.8625,90.557376 554,76.937806 c 5.85552,-2.938725 12.30408,-5.4535 26,-10.139334 23.95401,-8.195472 67.95522,-10.012001 95.5,-3.942586 13.91744,3.066669 16.54516,3.83435 24.5463,7.171131 4.09953,1.709663 9.89916,3.982298 12.88806,5.050299 2.9889,1.068002 8.3889,3.575463 12,5.572136 3.6111,1.996674 8.92824,4.865487 11.81585,6.375141 9.17678,4.797641 39.83722,30.215907 38.68885,32.074017 -0.32325,0.52302 -0.21677,0.84513 0.23661,0.7158 0.75173,-0.21444 10.99558,9.11668 15.82433,14.41439 1.1,1.20683 3.32577,3.33655 4.94616,4.73272 1.62039,1.39616 7.69539,7.43156 13.5,13.41198 5.80461,5.98043 14.60384,14.81553 19.55384,19.63355 9.28341,9.03589 10.33628,10.09389 21.79387,21.90008 l 6.79386,7.00058 -1.94722,3.79614 c -1.07097,2.08788 -3.90321,5.67405 -6.29386,7.96926 -2.39066,2.2952 -5.85804,6.00405 -7.7053,8.24187 -1.88455,2.283 -3.85958,3.78251 -4.5,3.41656 -0.62774,-0.3587 -0.82896,-0.30516 -0.44715,0.119 0.70606,0.78437 -6.31314,10.0282 -12.72416,16.75688 l -3.53238,3.70742 -4.45853,-3.14266 c -2.45219,-1.72846 -5.59684,-4.86276 -6.98811,-6.96511 -1.39127,-2.10235 -4.34927,-5.14063 -6.57333,-6.75173 -2.22406,-1.61111 -5.36821,-4.75764 -6.98699,-6.99231 C 794.31191,218.82836 792.5681,217 792.05556,217 c -0.51254,0 -6.92222,-6.11756 -14.24373,-13.59458 -7.3215,-7.47701 -15.25262,-14.73636 -17.6247,-16.13187 -5.36935,-3.15882 -7.19562,-2.50483 -13.31541,4.76821 -2.40445,2.85755 -7.18185,8.40465 -10.61645,12.32689 -3.4346,3.92224 -6.72188,8.5632 -7.30507,10.31324 -2.07776,6.23495 -2.29602,5.98464 47.81155,54.83181 l 12.32369,12.0137 -6.79272,5.65827 c -3.736,3.11204 -7.08574,5.80588 -7.44387,5.9863 -0.64703,0.32596 -67.13347,-64.60365 -94.198,-91.99228 -7.78297,-7.87617 -15.58232,-15.2062 -17.33191,-16.28895 -1.74958,-1.08275 -5.45899,-2.23843 -8.24313,-2.56817 -10.85888,-1.28607 -19.36472,5.21629 -23.06157,17.6296 -3.07087,10.31143 -2.11674,17.47347 3.22875,24.23601 2.41268,3.05228 5.63594,5.75542 8.2323,6.90392 2.34691,1.03814 5.84346,3.80462 7.77014,6.14772 1.92667,2.3431 19.27191,20.0704 38.54498,39.394 C 723.80742,310.74003 726.56996,314 721.45499,314 c -0.62976,0 -1.9705,0.91215 -2.97942,2.02699 -2.09967,2.32012 -11.07667,7.05763 -16.97557,8.95867 -2.2,0.709 -5.8,2.08611 -8,3.06026 -3.8,1.68262 -13.89952,4.91197 -21.5,6.87469 -13.64928,3.52473 -40.3986,4.70238 -58,2.55347 z M 643.91874,283.279 c 2.04412,-4.48636 2.46822,-18.95709 0.75552,-25.779 -2.60907,-10.39223 -7.4267,-22.70188 -10.53877,-26.92788 C 626.43694,220.11794 623.92123,217 623.18485,217 c -0.43764,0 -3.83815,-2.50955 -7.55669,-5.57677 -8.79343,-7.25323 -15.57741,-10.40084 -22.4439,-10.41346 -2.92366,-0.005 -6.13379,0.42804 -7.13363,0.96313 -2.53024,1.35415 -4.07401,9.60069 -4.22286,22.55772 -0.11171,9.72472 1.86602,14.31162 9.18429,21.3009 2.68852,2.56766 5.62517,6.43607 6.52586,8.59645 2.05893,4.93846 12.88604,16.38291 17.25239,18.23608 1.98366,0.8419 3.01439,1.84294 2.59549,2.52072 -0.422,0.68282 -0.24479,0.84612 0.45133,0.41589 0.63037,-0.38959 2.8374,0.63845 4.9045,2.28455 3.61908,2.88199 15.06618,7.90129 18.34785,8.04512 0.87422,0.0383 2.14739,-1.15478 2.82926,-2.65133 z m -370.3525,-12.30179 c 3.23364,-1.11253 6.31908,-2.46253 6.85655,-3 0.53747,-0.53747 1.71035,-0.97721 2.60641,-0.97721 2.51179,0 20.78087,-12.69174 27.24674,-18.92862 3.17677,-3.06426 7.14448,-7.82138 8.81715,-10.57138 C 324.81439,228.09368 331,216.65945 331,215.48983 c 0,-0.64284 -1.20873,-1.71953 -2.68607,-2.39265 -1.47734,-0.67312 -4.28984,-2.49184 -6.25,-4.0416 -1.96016,-1.54975 -5.63464,-3.78941 -8.16551,-4.97702 -2.53086,-1.1876 -5.87755,-3.49112 -7.43709,-5.11892 C 304.9018,197.33184 303.19418,196 302.66661,196 c -2.09949,0 -29.35323,25.80774 -32.72297,30.98679 -1.61508,2.48227 -4.25131,6.21686 -5.85829,8.2991 -4.21084,5.45618 -6.41207,13.43137 -6.50561,23.57019 -0.0439,4.75416 0.26633,9.88142 0.68931,11.39392 0.68725,2.45749 1.22903,2.75 5.09345,2.75 2.37842,0 6.9701,-0.91026 10.20374,-2.02279 z m 127.53098,-20.5373 c 0.51225,-0.31658 1.87604,-2.42733 3.03065,-4.69056 1.79368,-3.5159 2.03725,-5.4125 1.67315,-13.02809 -0.41704,-8.72265 -0.57441,-9.20274 -7.36358,-22.46358 -3.81559,-7.45274 -8.22639,-14.72207 -9.80178,-16.15406 -1.57539,-1.43199 -4.17073,-3.83362 -5.76743,-5.33695 -5.55355,-5.22882 -8.28999,-6.03131 -18.78085,-5.50771 -7.24419,0.36155 -11.15202,1.11798 -15.98926,3.09498 -3.52103,1.43907 -6.57788,2.79249 -6.79301,3.00761 -0.38844,0.38845 1.89416,5.71527 8.20105,19.13845 4.45412,9.47986 18.63764,28.14393 26.00265,34.21684 9.36016,7.71803 13.45395,9.48176 20.32412,8.75625 2.38311,-0.25166 4.75204,-0.71659 5.26429,-1.03318 z M 207.5,232.13977 c 11.76654,-3.06931 25.92085,-13.82488 28.50739,-21.66216 0.93428,-2.83089 0.84218,-4.41444 -0.49001,-8.42528 -3.04909,-9.17995 -6.48863,-11.53532 -20.66596,-14.15187 -12.52346,-2.31132 -29.24712,2.64408 -39.88515,11.8184 -2.45645,2.11846 -5.66043,4.60534 -7.11997,5.5264 -2.84793,1.79722 -8.8463,11.40955 -8.8463,14.17613 0,2.99654 2.87545,7.33852 6.23488,9.41476 7.75645,4.79374 29.91325,6.52561 42.26512,3.30362 z m 357.1661,-31.3773 c 1.88008,-1.88008 -0.44729,-17.73405 -3.98016,-27.11268 -3.74172,-9.9331 -20.03772,-33.18348 -25.15771,-35.89387 -1.30486,-0.69076 -4.62504,-3.39342 -7.37818,-6.00592 -6.72749,-6.38383 -8.63637,-6.26882 -15.03079,0.90555 -6.49218,7.28406 -9.07903,14.53748 -7.91732,22.19983 0.44657,2.94545 1.64319,6.54545 2.65917,8 2.2958,3.28681 3.23671,6.94408 3.76765,14.64462 0.55942,8.11354 4.09863,13.27923 10.80379,15.7688 2.67487,0.99316 6.03431,2.60712 7.46542,3.58658 1.43112,0.97947 5.52703,2.59081 9.10203,3.58077 3.575,0.98997 6.95,1.94347 7.5,2.11889 2.67712,0.85388 16.92565,-0.55212 18.1661,-1.79257 z m 149.02158,-2.40812 c -0.681,-0.681 14.83559,-7.30868 17.17847,-7.33753 1.85998,-0.0229 13.56608,-9.27015 19.35461,-15.2892 5.32584,-5.53793 10.17718,-14.52703 9.206,-17.05789 -1.5131,-3.94307 -19.9523,-9.05783 -32.42676,-8.99469 -12.35541,0.0625 -26.54657,4.13973 -38.27063,10.99536 -5.94659,3.47726 -8.38302,5.58882 -10.37946,8.9955 -2.75378,4.69896 -4.02735,11.49884 -2.95436,15.77397 1.32499,5.27916 15.29912,11.2682 28.48852,12.20961 4.73876,0.33824 8.80343,0.78048 9.0326,0.98275 0.73389,0.64777 1.4416,0.39271 0.77101,-0.27788 z M 608.2152,183.17297 c 1.80664,-1.55486 5.7598,-4.46397 8.7848,-6.46469 8.11651,-5.36822 30.39028,-27.38667 33.00798,-32.62962 5.00697,-10.02836 7.31985,-21.45482 5.37084,-26.53386 -1.20217,-3.13279 -5.92011,-4.54595 -15.07916,-4.51663 -9.30963,0.0298 -8.60275,-0.20789 -22.2201,7.47183 -2.92571,1.65 -8.93519,5.7 -13.35441,9 -4.41922,3.3 -9.44315,6.9576 -11.16429,8.12801 -4.78044,3.25078 -11.26207,13.61614 -12.62851,20.19538 -1.04634,5.03802 -0.96823,6.07034 0.69434,9.17661 1.49129,2.78626 2.73999,3.69211 6.12331,4.44206 3.74082,0.8292 4.25,1.2714 4.25,3.69098 0,2.9612 1.06144,4.02176 4.38598,4.3824 1.16271,0.12612 2.43996,0.28674 2.83834,0.35694 0.39838,0.0702 1.42243,1.47762 2.27568,3.12762 1.9156,3.70436 2.59175,3.72178 6.7152,0.17297 z m -279.04256,0.077 c -0.49375,-0.9625 -1.17336,-5.17269 -1.51025,-9.35598 -0.92981,-11.54565 -3.65808,-23.64004 -6.8477,-30.35576 -4.13159,-8.699 -12.33892,-20.14287 -16.44921,-22.93588 -1.94623,-1.3225 -4.20334,-3.35358 -5.01579,-4.51351 -1.43555,-2.04954 -9.2931,-7.40631 -14.34969,-9.78271 -3.9056,-1.83547 -14.47697,-5.30909 -16.06658,-5.27928 -0.78838,0.0148 -2.67645,2.82729 -4.1957,6.25 -3.2769,7.38251 -3.53302,13.87916 -0.83667,21.22312 1.00967,2.75 2.90748,7.92315 4.21735,11.49589 1.30988,3.57275 2.71502,6.94775 3.12254,7.5 13.57017,18.39001 30.76418,31.68112 41.2834,31.9124 2.29427,0.0504 5.41009,-0.57104 6.92405,-1.38107 2.48788,-1.33111 2.87494,-1.30553 4.02404,0.26597 3.94169,5.39057 5.07998,6.70681 5.8001,6.70681 0.43881,0 0.39386,-0.7875 -0.0999,-1.75 z"
         id="path3" />
      <path
         style="fill-opacity:1.0;fill:#66a02f"
         d="m 259.5,317.86277 c -5.5,-0.38773 -11.35,-0.93197 -13,-1.20942 -1.65,-0.27744 -5.925,-0.97823 -9.5,-1.55729 -16.18074,-2.62091 -23.45723,-4.73331 -37.5,-10.88648 -4.95,-2.16896 -9.675,-4.23434 -10.5,-4.58975 -0.825,-0.3554 -3.5492,-1.87775 -6.05379,-3.38301 -2.50458,-1.50525 -7.19427,-4.31182 -10.42152,-6.23682 -3.22725,-1.925 -8.68809,-6.16675 -12.1352,-9.42611 -3.44711,-3.25936 -7.07644,-6.37882 -8.06517,-6.93214 -0.98873,-0.55333 -3.37868,-2.79967 -5.31101,-4.99188 -1.93232,-2.1922 -4.38071,-4.69774 -5.44086,-5.56785 -2.92865,-2.40367 -46.280232,-44.93367 -69.632847,-68.3132 l -20.707309,-20.73117 1.869954,-3.76883 C 55.056038,166.33103 61.942585,158.0212 72.385653,147 c 3.387468,-3.575 8.297663,-9.29285 10.911545,-12.70634 2.613881,-3.41349 5.208287,-6.48803 5.765347,-6.83232 1.29418,-0.79984 4.468742,2.05883 32.697005,29.4434 12.79276,12.41039 25.16776,23.56348 27.5,24.78462 6.65513,3.48457 10.53608,3.03613 17.38044,-2.0083 9.45604,-6.96928 15.29526,-16.23605 15.33805,-24.34126 0.0276,-5.22958 -3.27578,-9.57187 -18.89683,-24.8398 -6.18992,-6.05 -15.82794,-15.50028 -21.41781,-21.00061 -5.58987,-5.50034 -12.31215,-11.866974 -14.9384,-14.14808 l -4.775,-4.147465 3.13112,-3.131119 c 1.72212,-1.722115 4.43236,-3.804015 6.02276,-4.626444 2.60836,-1.348836 3.16126,-1.328133 5.64388,0.211339 3.53945,2.194813 8.25224,6.485757 8.25224,7.513577 0,0.438359 5.2875,5.955904 11.75,12.261212 6.4625,6.30531 12.65,12.3747 13.75,13.48754 1.1,1.11283 5.88,5.9736 10.62221,10.80169 4.74222,4.8281 10.61764,10.64843 13.05649,12.93407 2.43885,2.28563 5.53385,5.77006 6.87779,7.74316 1.34393,1.97311 2.87188,3.59054 3.39545,3.5943 0.52356,0.004 7.5385,6.64433 15.58875,14.75683 8.05026,8.1125 16.49229,16.47917 18.76007,18.5926 2.26779,2.11344 4.38031,4.58844 4.6945,5.5 0.85524,2.48131 9.07554,8.1574 11.81381,8.1574 1.71727,0 4.1957,-2.04759 8.77549,-7.25 3.51029,-3.9875 8.75229,-9.50814 11.64889,-12.26809 8.06856,-7.68791 8.04628,-7.75968 -8.0676,-25.98191 C 249.18857,132.60514 244.30233,127.31236 237.75004,121.09513 234.03752,117.57245 231,114.36026 231,113.95693 231,113.55361 224.925,107.13806 217.5,99.700174 210.075,92.262282 204,85.75068 204,85.229947 c 0,-0.520733 -2.475,-2.590095 -5.5,-4.598582 -3.025,-2.008487 -5.5,-4.062671 -5.5,-4.564854 0,-0.502183 -1.20638,-2.346764 -2.68085,-4.099069 l -2.68085,-3.186009 2.43085,-1.854451 C 192.40022,65.148653 203.51807,59.479574 213,55.234364 c 6.89225,-3.085769 24.84611,-8.960341 31,-10.14332 3.025,-0.581504 7.975,-1.559786 11,-2.173962 3.025,-0.614175 11.8,-1.314721 19.5,-1.556768 11.48389,-0.360993 16.78569,-0.0023 29.5,1.995961 14.66488,2.304797 29.22642,5.811257 31.47769,7.579922 0.56227,0.441736 2.82231,1.376171 5.02231,2.076521 2.2,0.70035 6.42585,2.558996 9.39077,4.130323 C 352.85569,58.714369 355.85106,60 356.54714,60 c 1.15957,0 5.41699,2.644935 21.85274,13.576087 3.24493,2.158152 6.59795,4.373913 7.45116,4.923913 0.85321,0.55 2.24826,1.750105 3.10012,2.6669 0.85186,0.916795 6.26191,6.028345 12.02233,11.359001 5.76042,5.330655 11.81922,11.443049 13.464,13.583099 4.16777,5.42275 6.14592,5.019 11.56251,-2.35999 6.11523,-8.33074 18.36836,-20.615483 22.62998,-22.688365 4.83504,-2.351802 8.51785,-1.51767 12.83946,2.908054 l 3.68449,3.773264 -6.6979,8.879018 c -3.68384,4.883459 -7.27577,9.347399 -7.98206,9.919859 -1.20616,0.97763 -14.2046,16.97767 -18.24583,22.45916 -1.01372,1.375 -3.13295,4.75 -4.7094,7.5 -1.57645,2.75 -4.58808,7.29089 -6.69251,10.09087 -2.10442,2.79998 -3.82623,5.5751 -3.82623,6.16695 0,0.59184 -1.47724,3.92595 -3.28277,7.40913 C 408.35072,170.51993 406,177.25153 406,182.26626 c 0,4.67591 0.11556,4.84248 10.5669,15.23068 C 424.06295,204.9477 427.82725,208 429.51998,208 c 1.72581,0 2.82809,0.93125 3.98296,3.36496 0.87823,1.85072 2.36184,4.21322 3.29692,5.25 0.93508,1.03677 2.97041,3.75652 4.52296,6.04387 2.78199,4.09868 2.79817,4.20718 1.11842,7.5 -0.93743,1.83765 -3.57746,5.36617 -5.86674,7.84117 -2.28929,2.475 -6.06927,7.0875 -8.39996,10.25 -2.3307,3.1625 -4.61517,5.75 -5.0766,5.75 -0.46144,0 -2.58475,1.85417 -4.71846,4.12037 -2.13371,2.2662 -4.74593,4.8537 -5.80493,5.75 -1.059,0.8963 -4.434,4.03409 -7.5,6.97288 -3.066,2.93879 -7.24954,6.20405 -9.29675,7.25614 -2.0472,1.05209 -5.37445,3.37263 -7.39387,5.15675 -2.01943,1.78412 -5.37152,4.14386 -7.44909,5.24386 -13.91237,7.36608 -16.59606,8.85968 -17.93484,9.98157 -0.825,0.69134 -4.65,2.46236 -8.5,3.9356 -3.85,1.47324 -8.575,3.2801 -10.5,4.01523 -23.38632,8.93099 -56.47076,13.40634 -84.5,11.43037 z m 15.06624,-46.88556 c 3.23364,-1.11253 6.31908,-2.46253 6.85655,-3 0.53747,-0.53747 1.71035,-0.97721 2.60641,-0.97721 2.39262,0 19.83905,-12.02224 26.37628,-18.17575 3.10444,-2.92222 7.01342,-7.56563 8.68662,-10.31869 6.4869,-10.67344 11.9079,-20.92 11.9079,-22.50784 0,-1.74552 -6.51656,-6.56818 -15.29114,-11.31641 -2.86488,-1.55027 -6.58028,-4.13777 -8.25647,-5.75 C 305.77621,197.31909 303.57834,196 302.56824,196 299.6605,196 274.85408,218.8713 270,226.02762 c -1.375,2.02715 -3.92601,5.56737 -5.66891,7.86715 -4.74442,6.26033 -6.76661,13.87325 -6.80142,25.60523 -0.0163,5.5 0.29371,10.7875 0.68895,11.75 1.00537,2.44833 8.81745,2.31797 16.34762,-0.27279 z m 124.35714,-19.61189 c 2.41017,-0.48203 3.66905,-1.60625 5.23431,-4.67441 1.77192,-3.47326 2.00544,-5.42092 1.6653,-13.88941 -0.39435,-9.81807 -0.41623,-9.89053 -6.81833,-22.57559 -6.544,-12.96622 -12.72129,-20.64313 -20.35726,-25.29927 -4.92522,-3.00321 -19.4487,-2.70794 -28.87996,0.58714 -3.95726,1.38259 -7.6191,2.93788 -8.13744,3.45622 -0.93465,0.93465 0.69736,5.17909 7.89389,20.53 6.19891,13.22288 20.06695,30.08123 31.55855,38.3634 4.7014,3.38837 11.6193,4.74625 17.84094,3.50192 z M 208.5,232.13977 c 11.70274,-3.05267 25.01008,-13.09525 27.54988,-20.79092 1.32755,-4.02252 0.81342,-7.6088 -2.00388,-13.97777 -2.31952,-5.24365 -6.27766,-7.32262 -17.9252,-9.41502 -14.16028,-2.5438 -31.21139,2.2384 -42.15453,11.82277 -2.45645,2.15144 -5.44423,4.42868 -6.6395,5.06054 C 164.33375,206.42156 159,216.06002 159,219.88641 c 0,2.17137 1.03617,4.27361 3.35183,6.80044 2.9253,3.19206 4.42054,3.88062 11.75,5.41088 11.25474,2.34979 25.48449,2.36718 34.39817,0.042 z M 331,187.52024 c 0,-0.26387 -0.63663,-2.17637 -1.41473,-4.25 -0.77811,-2.07363 -1.68236,-7.04472 -2.00946,-11.04686 -0.91898,-11.24401 -3.60622,-23.04252 -6.76112,-29.68512 -4.23299,-8.9125 -12.30274,-20.05874 -16.31969,-22.54135 -1.93616,-1.19662 -3.97743,-3.02982 -4.53614,-4.07379 -1.82313,-3.40655 -12.25249,-9.35961 -22.52544,-12.85749 -9.10608,-3.100561 -9.64819,-2.93912 -12.88726,3.83779 -2.52622,5.28546 -2.76895,6.67243 -2.3189,13.25 0.48119,7.03255 4.62346,19.42237 9.47707,28.34658 4.9835,9.16302 20.3848,23.4126 30.79567,28.49276 5.5605,2.71334 15.14095,3.38004 17.72721,1.23364 1.25023,-1.0376 2.0891,-0.47699 5.13361,3.43077 2.00155,2.56908 3.63918,5.0472 3.63918,5.50694 0,0.45974 0.45,0.83589 1,0.83589 0.55,0 1,-0.21589 1,-0.47976 z"
         id="path2" />
    </g>
  </g>
</svg>
